<svg width="70" height="70" viewBox="0 0 70 70" fill="none" xmlns="http://www.w3.org/2000/svg">
<rect x="0.5" y="0.5" width="69" height="69" rx="7.5" fill="url(#paint0_linear_207_3)" stroke="url(#paint1_linear_207_3)"/>
<path d="M48.5455 42H45.7273C45.5606 41.1894 45.2689 40.4773 44.8523 39.8636C44.4432 39.25 43.9432 38.7348 43.3523 38.3182C42.7689 37.8939 42.1212 37.5758 41.4091 37.3636C40.697 37.1515 39.9545 37.0455 39.1818 37.0455C37.7727 37.0455 36.4962 37.4015 35.3523 38.1136C34.2159 38.8258 33.3106 39.875 32.6364 41.2614C31.9697 42.6477 31.6364 44.3485 31.6364 46.3636C31.6364 48.3788 31.9697 50.0795 32.6364 51.4659C33.3106 52.8523 34.2159 53.9015 35.3523 54.6136C36.4962 55.3258 37.7727 55.6818 39.1818 55.6818C39.9545 55.6818 40.697 55.5758 41.4091 55.3636C42.1212 55.1515 42.7689 54.8371 43.3523 54.4205C43.9432 53.9962 44.4432 53.4773 44.8523 52.8636C45.2689 52.2424 45.5606 51.5303 45.7273 50.7273H48.5455C48.3333 51.9167 47.947 52.9811 47.3864 53.9205C46.8258 54.8598 46.1288 55.6591 45.2955 56.3182C44.4621 56.9697 43.5265 57.4659 42.4886 57.8068C41.4583 58.1477 40.3561 58.3182 39.1818 58.3182C37.197 58.3182 35.4318 57.8333 33.8864 56.8636C32.3409 55.8939 31.125 54.5152 30.2386 52.7273C29.3523 50.9394 28.9091 48.8182 28.9091 46.3636C28.9091 43.9091 29.3523 41.7879 30.2386 40C31.125 38.2121 32.3409 36.8333 33.8864 35.8636C35.4318 34.8939 37.197 34.4091 39.1818 34.4091C40.3561 34.4091 41.4583 34.5795 42.4886 34.9205C43.5265 35.2614 44.4621 35.7614 45.2955 36.4205C46.1288 37.072 46.8258 37.8674 47.3864 38.8068C47.947 39.7386 48.3333 40.803 48.5455 42ZM52.7358 40.5455H55.4176V59.2727C55.4176 60.3485 55.232 61.2803 54.8608 62.0682C54.4972 62.8561 53.9441 63.4659 53.2017 63.8977C52.4669 64.3295 51.5388 64.5455 50.4176 64.5455C50.3267 64.5455 50.2358 64.5455 50.1449 64.5455C50.054 64.5455 49.9631 64.5455 49.8722 64.5455V62.0455C49.9631 62.0455 50.0464 62.0455 50.1222 62.0455C50.1979 62.0455 50.2812 62.0455 50.3722 62.0455C51.1903 62.0455 51.7888 61.803 52.1676 61.3182C52.5464 60.8409 52.7358 60.1591 52.7358 59.2727V40.5455ZM54.054 37.6364C53.5313 37.6364 53.0805 37.4583 52.7017 37.1023C52.3305 36.7462 52.1449 36.3182 52.1449 35.8182C52.1449 35.3182 52.3305 34.8902 52.7017 34.5341C53.0805 34.178 53.5313 34 54.054 34C54.5767 34 55.0237 34.178 55.3949 34.5341C55.7737 34.8902 55.9631 35.3182 55.9631 35.8182C55.9631 36.3182 55.7737 36.7462 55.3949 37.1023C55.0237 37.4583 54.5767 37.6364 54.054 37.6364ZM62.2841 58.1818C61.7235 58.1818 61.2424 57.9811 60.8409 57.5795C60.4394 57.178 60.2386 56.697 60.2386 56.1364C60.2386 55.5758 60.4394 55.0947 60.8409 54.6932C61.2424 54.2917 61.7235 54.0909 62.2841 54.0909C62.8447 54.0909 63.3258 54.2917 63.7273 54.6932C64.1288 55.0947 64.3295 55.5758 64.3295 56.1364C64.3295 56.5076 64.2348 56.8485 64.0455 57.1591C63.8636 57.4697 63.6174 57.7197 63.3068 57.9091C63.0038 58.0909 62.6629 58.1818 62.2841 58.1818Z" fill="#EEEEEE"/>
<defs>
<linearGradient id="paint0_linear_207_3" x1="-58.5" y1="16.5" x2="120.5" y2="98.5" gradientUnits="userSpaceOnUse">
<stop/>
<stop offset="0.802864" stop-color="#282828" stop-opacity="0.4"/>
<stop offset="1" stop-color="#1C1C1C" stop-opacity="0"/>
</linearGradient>
<linearGradient id="paint1_linear_207_3" x1="6.20253" y1="-13.5" x2="73.214" y2="80.6686" gradientUnits="userSpaceOnUse">
<stop stop-color="white"/>
<stop offset="1" stop-color="white" stop-opacity="0"/>
</linearGradient>
</defs>
</svg>
