<svg width="70" height="70" viewBox="0 0 70 70" fill="none" xmlns="http://www.w3.org/2000/svg">
<rect x="0.5" y="0.5" width="69" height="69" rx="7.5" fill="#141414" stroke="url(#paint0_linear_112_2)"/>
<g clip-path="url(#clip0_112_2)">
<path d="M34.8908 30.2299C38.5623 30.3204 41.6154 27.5529 41.7101 24.0486C41.8048 20.5443 38.9053 17.6303 35.2338 17.5399C31.5624 17.4495 28.5093 20.2169 28.4145 23.7212C28.3198 27.2255 31.2193 30.1395 34.8908 30.2299Z" fill="#4E7CF1"/>
<path d="M35.1876 51.4341C38.859 51.5245 41.9121 48.757 42.0069 45.2528C42.1016 41.7485 39.2021 38.8344 35.5306 38.744C31.8591 38.6536 28.806 41.4211 28.7113 44.9254C28.6166 48.4296 31.5161 51.3437 35.1876 51.4341Z" fill="#3FE381"/>
<path d="M23.0273 41.2787C26.6988 41.3691 29.7519 38.6016 29.8466 35.0973C29.9413 31.5931 27.0418 28.679 23.3703 28.5886C19.6989 28.4982 16.6457 31.2656 16.551 34.7699C16.4563 38.2742 19.3558 41.1882 23.0273 41.2787Z" fill="#F1B746"/>
<path d="M46.5876 40.7346C50.2591 40.8251 53.3122 38.0576 53.4069 34.5533C53.5016 31.049 50.6021 28.135 46.9306 28.0446C43.2592 27.9542 40.206 30.7216 40.1113 34.2259C40.0166 37.7302 42.9161 40.6442 46.5876 40.7346Z" fill="#FB4E4E"/>
</g>
<defs>
<linearGradient id="paint0_linear_112_2" x1="6.20253" y1="-13.5" x2="73.214" y2="80.6686" gradientUnits="userSpaceOnUse">
<stop stop-color="white"/>
<stop offset="1" stop-color="white" stop-opacity="0"/>
</linearGradient>
<clipPath id="clip0_112_2">
<rect width="38" height="35" fill="white" transform="translate(16 17)"/>
</clipPath>
</defs>
</svg>
