<svg width="70" height="70" viewBox="0 0 70 70" fill="none" xmlns="http://www.w3.org/2000/svg">
<rect x="0.5" y="0.5" width="69" height="69" rx="7.5" fill="#141414" stroke="url(#paint0_linear_113_3)"/>
<path d="M14.5852 44V30.9091H19.0085C20.0355 30.9091 20.875 31.0945 21.527 31.4652C22.1832 31.8317 22.669 32.3281 22.9844 32.9545C23.2997 33.581 23.4574 34.2798 23.4574 35.0511C23.4574 35.8224 23.2997 36.5234 22.9844 37.1541C22.6733 37.7848 22.1918 38.2876 21.5398 38.6626C20.8878 39.0334 20.0526 39.2188 19.0341 39.2188H15.8636V37.8125H18.983C19.6861 37.8125 20.2507 37.6911 20.6768 37.4482C21.103 37.2053 21.4119 36.8771 21.6037 36.4638C21.7997 36.0462 21.8977 35.5753 21.8977 35.0511C21.8977 34.527 21.7997 34.0582 21.6037 33.6449C21.4119 33.2315 21.1009 32.9077 20.6705 32.6733C20.2401 32.4347 19.669 32.3153 18.9574 32.3153H16.1705V44H14.5852ZM25.8065 44V34.1818H27.315V44H25.8065ZM26.5735 32.5455C26.2795 32.5455 26.0259 32.4453 25.8129 32.245C25.604 32.0447 25.4996 31.804 25.4996 31.5227C25.4996 31.2415 25.604 31.0007 25.8129 30.8004C26.0259 30.6001 26.2795 30.5 26.5735 30.5C26.8675 30.5 27.119 30.6001 27.3278 30.8004C27.5408 31.0007 27.6474 31.2415 27.6474 31.5227C27.6474 31.804 27.5408 32.0447 27.3278 32.245C27.119 32.4453 26.8675 32.5455 26.5735 32.5455ZM34.0666 44.2045C33.1461 44.2045 32.3535 43.9872 31.6887 43.5526C31.024 43.1179 30.5126 42.5192 30.1547 41.7564C29.7967 40.9936 29.6177 40.1222 29.6177 39.142C29.6177 38.1449 29.801 37.2649 30.1674 36.5021C30.5382 35.7351 31.0538 35.1364 31.7143 34.706C32.3791 34.2713 33.1547 34.054 34.041 34.054C34.7314 34.054 35.3535 34.1818 35.9075 34.4375C36.4615 34.6932 36.9153 35.0511 37.269 35.5114C37.6227 35.9716 37.8422 36.5085 37.9274 37.1222H36.4189C36.3038 36.6747 36.0481 36.2784 35.6518 35.9332C35.2598 35.5838 34.7314 35.4091 34.0666 35.4091C33.4785 35.4091 32.9629 35.5625 32.5197 35.8693C32.0808 36.1719 31.7377 36.6001 31.4906 37.1541C31.2477 37.7038 31.1262 38.3494 31.1262 39.0909C31.1262 39.8494 31.2456 40.5099 31.4842 41.0724C31.7271 41.6349 32.068 42.0717 32.5069 42.3828C32.9501 42.6939 33.47 42.8494 34.0666 42.8494C34.4586 42.8494 34.8145 42.7812 35.1341 42.6449C35.4537 42.5085 35.7243 42.3125 35.9458 42.0568C36.1674 41.8011 36.3251 41.4943 36.4189 41.1364H37.9274C37.8422 41.7159 37.6312 42.2379 37.2946 42.7024C36.9622 43.1626 36.5211 43.5291 35.9714 43.8018C35.426 44.0703 34.791 44.2045 34.0666 44.2045ZM41.5389 40.4205L41.5133 38.554H41.8201L46.1156 34.1818H47.9821L43.4054 38.8097H43.2775L41.5389 40.4205ZM40.1326 44V30.9091H41.6412V44H40.1326ZM46.3713 44L42.536 39.142L43.6099 38.0938L48.2889 44H46.3713ZM53.508 44.2045C52.6216 44.2045 51.8439 43.9936 51.1749 43.5717C50.5101 43.1499 49.9902 42.5597 49.6152 41.8011C49.2445 41.0426 49.0591 40.1562 49.0591 39.142C49.0591 38.1193 49.2445 37.2266 49.6152 36.4638C49.9902 35.701 50.5101 35.1087 51.1749 34.6868C51.8439 34.2649 52.6216 34.054 53.508 34.054C54.3944 34.054 55.1699 34.2649 55.8347 34.6868C56.5037 35.1087 57.0236 35.701 57.3944 36.4638C57.7694 37.2266 57.9569 38.1193 57.9569 39.142C57.9569 40.1562 57.7694 41.0426 57.3944 41.8011C57.0236 42.5597 56.5037 43.1499 55.8347 43.5717C55.1699 43.9936 54.3944 44.2045 53.508 44.2045ZM53.508 42.8494C54.1813 42.8494 54.7353 42.6768 55.1699 42.3317C55.6046 41.9865 55.9263 41.5327 56.1351 40.9702C56.3439 40.4077 56.4483 39.7983 56.4483 39.142C56.4483 38.4858 56.3439 37.8743 56.1351 37.3075C55.9263 36.7408 55.6046 36.2827 55.1699 35.9332C54.7353 35.5838 54.1813 35.4091 53.508 35.4091C52.8347 35.4091 52.2807 35.5838 51.8461 35.9332C51.4114 36.2827 51.0897 36.7408 50.8809 37.3075C50.6721 37.8743 50.5676 38.4858 50.5676 39.142C50.5676 39.7983 50.6721 40.4077 50.8809 40.9702C51.0897 41.5327 51.4114 41.9865 51.8461 42.3317C52.2807 42.6768 52.8347 42.8494 53.508 42.8494Z" fill="#E8E8E8"/>
<defs>
<linearGradient id="paint0_linear_113_3" x1="6.20253" y1="-13.5" x2="73.214" y2="80.6686" gradientUnits="userSpaceOnUse">
<stop stop-color="white"/>
<stop offset="1" stop-color="white" stop-opacity="0"/>
</linearGradient>
</defs>
</svg>
